<?xml version="1.0" encoding="utf-8"?><svg viewBox="0 0 287 50" xmlns="http://www.w3.org/2000/svg" xmlns:xlink="http://www.w3.org/1999/xlink"><style>:root>svg{display:none}:root>svg:target{display:block}</style><svg fill="none" viewBox="0 0 32 32" id="ArrowLeft-grown" xmlns="http://www.w3.org/2000/svg"><path d="M27 16H5M14 7l-9 9 9 9" stroke="#958373" stroke-width="2" stroke-linecap="round" stroke-linejoin="round"/></svg><svg fill="none" viewBox="0 0 32 32" id="ArrowLeft-white" xmlns="http://www.w3.org/2000/svg"><path d="M27 16H5M14 7l-9 9 9 9" stroke="#958373" stroke-width="2" stroke-linecap="round" stroke-linejoin="round"/></svg><svg fill="none" viewBox="0 0 32 32" id="ArrowRight-grown" xmlns="http://www.w3.org/2000/svg"><path d="M5 16h22M18 7l9 9-9 9" stroke="#fff" stroke-width="2" stroke-linecap="round" stroke-linejoin="round"/></svg><svg fill="none" viewBox="0 0 32 32" id="ArrowRight-white" xmlns="http://www.w3.org/2000/svg"><path d="M5 16h22M18 7l9 9-9 9" stroke="#fff" stroke-width="2" stroke-linecap="round" stroke-linejoin="round"/></svg><svg fill="none" viewBox="0 0 20 20" id="baseball" xmlns="http://www.w3.org/2000/svg"><path d="M15.417 3.992A11.155 11.155 0 0 1 4.725 9.567l-2.642-.242M4.583 16.142a11.155 11.155 0 0 1 10.692-5.575l2.642.241" stroke="#fff" stroke-miterlimit="10" stroke-linecap="round" stroke-linejoin="round"/><path d="M10 18.333a8.333 8.333 0 1 0 0-16.666 8.333 8.333 0 0 0 0 16.666Z" stroke="#fff" stroke-miterlimit="10" stroke-linecap="round" stroke-linejoin="round"/><path d="m6.358 2.5 2.65 3.292a19.13 19.13 0 0 1 3.7 7.5l1.009 4.158" stroke="#fff" stroke-miterlimit="10" stroke-linecap="round" stroke-linejoin="round"/></svg><svg fill="none" viewBox="0 0 20 20" id="baseball-black" xmlns="http://www.w3.org/2000/svg"><path d="M15.417 3.992A11.155 11.155 0 0 1 4.725 9.567l-2.642-.242M4.583 16.142a11.155 11.155 0 0 1 10.692-5.575l2.642.241" stroke="#000" stroke-miterlimit="10" stroke-linecap="round" stroke-linejoin="round"/><path d="M10 18.333a8.333 8.333 0 1 0 0-16.666 8.333 8.333 0 0 0 0 16.666Z" stroke="#000" stroke-miterlimit="10" stroke-linecap="round" stroke-linejoin="round"/><path d="m6.358 2.5 2.65 3.292a19.13 19.13 0 0 1 3.7 7.5l1.009 4.158" stroke="#000" stroke-miterlimit="10" stroke-linecap="round" stroke-linejoin="round"/></svg><svg viewBox="0 0 20 20" fill="none" id="facebook" xmlns="http://www.w3.org/2000/svg"><path d="M11.667 7.75v2.417h2.166c.167 0 .25.166.25.333l-.333 1.583c0 .084-.167.167-.25.167h-1.833v6.083h-2.5v-6H7.75c-.167 0-.25-.083-.25-.25V10.5c0-.167.083-.25.25-.25h1.417V7.5c0-1.417 1.083-2.5 2.5-2.5h2.25c.166 0 .25.083.25.25v2c0 .167-.084.25-.25.25h-2c-.167 0-.25.083-.25.25Z" stroke="#fff" stroke-miterlimit="10" stroke-linecap="round"/><path d="M12.5 18.333h-5c-4.167 0-5.833-1.666-5.833-5.833v-5c0-4.167 1.666-5.833 5.833-5.833h5c4.167 0 5.833 1.666 5.833 5.833v5c0 4.167-1.666 5.833-5.833 5.833Z" stroke="#fff" stroke-linecap="round" stroke-linejoin="round"/></svg><svg fill="none" viewBox="0 0 20 20" id="facebook-black" xmlns="http://www.w3.org/2000/svg"><path d="M11.667 7.75v2.417h2.166c.167 0 .25.166.25.333l-.333 1.583c0 .084-.167.167-.25.167h-1.833v6.083h-2.5v-6H7.75c-.167 0-.25-.083-.25-.25V10.5c0-.167.083-.25.25-.25h1.417V7.5c0-1.417 1.083-2.5 2.5-2.5h2.25c.166 0 .25.083.25.25v2c0 .167-.084.25-.25.25h-2c-.167 0-.25.083-.25.25Z" stroke="#000" stroke-miterlimit="10" stroke-linecap="round"/><path d="M12.5 18.333h-5c-4.167 0-5.833-1.666-5.833-5.833v-5c0-4.167 1.666-5.833 5.833-5.833h5c4.167 0 5.833 1.666 5.833 5.833v5c0 4.167-1.666 5.833-5.833 5.833Z" stroke="#000" stroke-linecap="round" stroke-linejoin="round"/></svg><svg fill="none" viewBox="0 0 20 20" id="figma" xmlns="http://www.w3.org/2000/svg"><path d="M10 1.667H7.25c-1.583 0-2.833 1.25-2.833 2.75s1.25 2.75 2.75 2.75H10v-5.5ZM10 7.25H7.25C5.75 7.25 4.5 8.5 4.5 10s1.25 2.75 2.75 2.75H10v-5.5ZM10 12.75H7.25c-1.5 0-2.75 1.25-2.75 2.75s1.25 2.75 2.75 2.75S10 17 10 15.5v-2.75ZM10 1.667h2.75c1.5 0 2.75 1.25 2.75 2.75s-1.25 2.75-2.75 2.75H10v-5.5ZM12.75 7.25c1.5 0 2.75 1.25 2.75 2.75s-1.25 2.75-2.75 2.75S10 11.5 10 10s1.25-2.75 2.75-2.75Z" stroke="#fff" stroke-miterlimit="10"/></svg><svg fill="none" viewBox="0 0 20 20" id="figma-black" xmlns="http://www.w3.org/2000/svg"><path d="M10 1.667H7.25c-1.583 0-2.833 1.25-2.833 2.75s1.25 2.75 2.75 2.75H10v-5.5ZM10 7.25H7.25C5.75 7.25 4.5 8.5 4.5 10s1.25 2.75 2.75 2.75H10v-5.5ZM10 12.75H7.25c-1.5 0-2.75 1.25-2.75 2.75s1.25 2.75 2.75 2.75S10 17 10 15.5v-2.75ZM10 1.667h2.75c1.5 0 2.75 1.25 2.75 2.75s-1.25 2.75-2.75 2.75H10v-5.5ZM12.75 7.25c1.5 0 2.75 1.25 2.75 2.75s-1.25 2.75-2.75 2.75S10 11.5 10 10s1.25-2.75 2.75-2.75Z" stroke="#000" stroke-miterlimit="10"/></svg><svg fill="none" viewBox="0 0 22 22" id="hurt" xmlns="http://www.w3.org/2000/svg"><path d="M15.127 2.75a5.144 5.144 0 0 0-4.125 2.059 5.158 5.158 0 0 0-9.281 3.097c0 6.176 8.58 11.052 8.945 11.256a.688.688 0 0 0 .672 0 27.275 27.275 0 0 0 4.42-3.225c3.003-2.702 4.525-5.404 4.525-8.03a5.162 5.162 0 0 0-5.156-5.157Z" fill="#FFFAF5"/></svg><svg fill="none" viewBox="0 0 20 18" id="hurt-white" xmlns="http://www.w3.org/2000/svg"><path d="M14.127.75a5.144 5.144 0 0 0-4.125 2.059A5.158 5.158 0 0 0 .721 5.906c0 6.176 8.58 11.052 8.945 11.256a.688.688 0 0 0 .672 0 27.275 27.275 0 0 0 4.42-3.225c3.003-2.702 4.525-5.404 4.525-8.03A5.162 5.162 0 0 0 14.127.75Z" fill="#FFFAF5"/></svg><svg fill="none" viewBox="0 0 32 32" id="phone" xmlns="http://www.w3.org/2000/svg"><path d="M19.927 5A10.019 10.019 0 0 1 27 12.073M18.892 8.865a6.011 6.011 0 0 1 4.243 4.243M11.56 15.602a10.543 10.543 0 0 0 4.881 4.86.99.99 0 0 0 .979-.075l3.13-2.086a1 1 0 0 1 .948-.088l5.855 2.51a.997.997 0 0 1 .6 1.037A6.002 6.002 0 0 1 22 27 17 17 0 0 1 5 10a6.001 6.001 0 0 1 5.24-5.952.997.997 0 0 1 1.037.6l2.512 5.86a1 1 0 0 1-.083.94l-2.08 3.178a.992.992 0 0 0-.066.976v0Z" stroke="#2A312F" stroke-width="2" stroke-linecap="round" stroke-linejoin="round"/></svg><svg fill="none" viewBox="0 0 32 32" id="price" xmlns="http://www.w3.org/2000/svg"><path d="M15.333 3.235 5.251 5.25 3.235 15.333a1 1 0 0 0 .273.903l13.057 13.057a1 1 0 0 0 1.414 0l11.314-11.314a1 1 0 0 0 0-1.414L16.236 3.508a1 1 0 0 0-.903-.273v0Z" stroke="#2A312F" stroke-width="2" stroke-linecap="round" stroke-linejoin="round"/><path d="M10.5 12a1.5 1.5 0 1 0 0-3 1.5 1.5 0 0 0 0 3Z" fill="#2A312F"/></svg><svg fill="none" viewBox="0 0 25 24" id="shop" xmlns="http://www.w3.org/2000/svg"><path d="M8.5 21.75a1.5 1.5 0 1 0 0-3 1.5 1.5 0 0 0 0 3ZM18.25 21.75a1.5 1.5 0 1 0 0-3 1.5 1.5 0 0 0 0 3Z" fill="#fff"/><path d="M4.964 6.75h16.822l-2.475 8.662a1.5 1.5 0 0 1-1.442 1.088H8.88a1.5 1.5 0 0 1-1.442-1.088L4.05 3.544A.75.75 0 0 0 3.326 3H1.75" stroke="#fff" stroke-width="2" stroke-linecap="round" stroke-linejoin="round"/></svg><svg fill="none" viewBox="0 0 47 45" id="star-white" xmlns="http://www.w3.org/2000/svg"><path fill-rule="evenodd" clip-rule="evenodd" d="M34.028 39.376c-.304 0-.61-.07-.89-.212l-9.804-4.995-9.802 4.995a1.967 1.967 0 0 1-2.022-.148 1.849 1.849 0 0 1-.762-1.834l1.867-10.552-7.921-7.472a1.846 1.846 0 0 1-.492-1.926 1.906 1.906 0 0 1 1.553-1.276l10.96-1.553 4.898-9.611c.65-1.275 2.794-1.275 3.444 0l4.899 9.611 10.958 1.553a1.906 1.906 0 0 1 1.554 1.276 1.846 1.846 0 0 1-.492 1.926l-7.922 7.472 1.867 10.552a1.853 1.853 0 0 1-.76 1.834 1.94 1.94 0 0 1-1.133.36Z" fill="#231F20"/><mask id="pa" style="mask-type:luminance" maskUnits="userSpaceOnUse" x="4" y="3" width="39" height="37"><path fill-rule="evenodd" clip-rule="evenodd" d="M34.028 39.376c-.304 0-.61-.07-.89-.212l-9.804-4.995-9.802 4.995a1.967 1.967 0 0 1-2.022-.148 1.849 1.849 0 0 1-.762-1.834l1.867-10.552-7.921-7.472a1.846 1.846 0 0 1-.492-1.926 1.906 1.906 0 0 1 1.553-1.276l10.96-1.553 4.898-9.611c.65-1.275 2.794-1.275 3.444 0l4.899 9.611 10.958 1.553a1.906 1.906 0 0 1 1.554 1.276 1.846 1.846 0 0 1-.492 1.926l-7.922 7.472 1.867 10.552a1.853 1.853 0 0 1-.76 1.834 1.94 1.94 0 0 1-1.133.36Z" fill="#fff"/></mask><g mask="url(#pa)"><path fill="#F2EFE9" d="M.263 0h46.143v45H.263z"/></g></svg><svg fill="none" viewBox="0 0 47 45" id="star-yellow" xmlns="http://www.w3.org/2000/svg"><path fill-rule="evenodd" clip-rule="evenodd" d="M33.962 39.376c-.304 0-.61-.07-.89-.212l-9.804-4.995-9.802 4.995a1.967 1.967 0 0 1-2.022-.148 1.85 1.85 0 0 1-.761-1.834l1.866-10.552-7.92-7.472a1.846 1.846 0 0 1-.493-1.926 1.906 1.906 0 0 1 1.553-1.276l10.96-1.553 4.898-9.611c.65-1.275 2.794-1.275 3.444 0l4.899 9.611 10.959 1.553a1.906 1.906 0 0 1 1.553 1.276 1.846 1.846 0 0 1-.492 1.926l-7.921 7.472 1.867 10.552a1.853 1.853 0 0 1-.762 1.834 1.94 1.94 0 0 1-1.132.36Z" fill="#231F20"/><mask id="qa" style="mask-type:luminance" maskUnits="userSpaceOnUse" x="4" y="3" width="39" height="37"><path fill-rule="evenodd" clip-rule="evenodd" d="M33.962 39.376c-.304 0-.61-.07-.89-.212l-9.804-4.995-9.802 4.995a1.967 1.967 0 0 1-2.022-.148 1.85 1.85 0 0 1-.761-1.834l1.866-10.552-7.92-7.472a1.846 1.846 0 0 1-.493-1.926 1.906 1.906 0 0 1 1.553-1.276l10.96-1.553 4.898-9.611c.65-1.275 2.794-1.275 3.444 0l4.899 9.611 10.959 1.553a1.906 1.906 0 0 1 1.553 1.276 1.846 1.846 0 0 1-.492 1.926l-7.921 7.472 1.867 10.552a1.853 1.853 0 0 1-.762 1.834 1.94 1.94 0 0 1-1.132.36Z" fill="#fff"/></mask><g mask="url(#qa)"><path fill="#E9B237" d="M.197 0H46.34v45H.197z"/></g></svg><svg fill="none" viewBox="0 0 287 17" id="stroke" xmlns="http://www.w3.org/2000/svg"><path fill-rule="evenodd" clip-rule="evenodd" d="M121.892 1.575c-13.483.54-26.808 1.203-39.802 1.929C63.695 4.53 45.307 5.592 27.03 7.273c-5.752.53-11.595.867-17.312 1.53C6.13 9.22 1.371 9.812.746 9.936c-.326.07-.469.177-.515.212-.324.248-.265.487-.082.672.073.08.259.275.774.301C35.376 12.935 70.605 9.396 105.1 9.024c59.819-.637 121.451 1.894 180.795 7.415.518.044 1.022-.177 1.094-.505.086-.318-.288-.628-.806-.672-59.445-5.53-121.178-8.07-181.112-7.423-32.147.345-64.928 3.45-97.12 2.389l2.127-.257c5.694-.663 11.512-.99 17.242-1.522 18.237-1.68 36.588-2.742 54.958-3.76 22.793-1.274 46.58-2.37 70.553-2.884 8.577.08 17.124.16 25.672.257 18.491.212 37.068.831 55.516 1.663 5.555.256 11.109.522 16.664.752 1.842.08 6.59.31 7.252.292.821-.018.979-.443.993-.513.043-.16.015-.38-.388-.567-.044-.026-.302-.115-.878-.168C224.118.39 188.302-.133 152.859.62 115.474.292 77.945.15 40.655 0c-.534 0-.97.265-.974.593-.003.327.427.593.961.601 27.002.107 54.14.213 81.25.38Z" fill="#2A312F"/></svg><svg fill="none" viewBox="0 0 32 32" id="truck" xmlns="http://www.w3.org/2000/svg"><path d="M30 15h-8v-5h5.323a1 1 0 0 1 .928.629L30 15ZM2 18h20" stroke="#2A312F" stroke-width="2" stroke-linecap="round" stroke-linejoin="round"/><path d="M23.5 27a3 3 0 1 0 0-6 3 3 0 0 0 0 6ZM8.5 27a3 3 0 1 0 0-6 3 3 0 0 0 0 6Z" stroke="#2A312F" stroke-width="2" stroke-miterlimit="10"/><path d="M20.5 24h-9M5.5 24H3a1 1 0 0 1-1-1V9a1 1 0 0 1 1-1h19v13.402M22 21.402V15h8v8a1 1 0 0 1-1 1h-2.5" stroke="#2A312F" stroke-width="2" stroke-linecap="round" stroke-linejoin="round"/></svg><svg fill="none" viewBox="0 0 20 20" id="whatsapp" xmlns="http://www.w3.org/2000/svg"><path d="M5.75 17.167A8.35 8.35 0 0 0 10 18.333c4.583 0 8.333-3.75 8.333-8.333S14.583 1.667 10 1.667 1.667 5.417 1.667 10c0 1.5.416 2.917 1.083 4.167l-.643 2.472a1 1 0 0 0 1.243 1.214l2.4-.686Z" stroke="#fff" stroke-miterlimit="10" stroke-linecap="round" stroke-linejoin="round"/><path d="M13.75 12.374c0 .135-.03.274-.094.409a1.692 1.692 0 0 1-.871.825c-.226.093-.47.142-.732.142-.384 0-.793-.09-1.225-.274a6.604 6.604 0 0 1-1.292-.742 10.79 10.79 0 0 1-1.232-1.05 10.66 10.66 0 0 1-1.047-1.226 6.683 6.683 0 0 1-.737-1.28 3.155 3.155 0 0 1-.27-1.226c0-.255.045-.498.135-.723.09-.229.233-.439.432-.627.24-.236.503-.352.781-.352.105 0 .21.022.304.067a.612.612 0 0 1 .252.21l.871 1.227c.068.094.117.18.15.262a.592.592 0 0 1 .053.229c0 .09-.026.18-.079.266-.048.087-.12.177-.21.267l-.285.296a.2.2 0 0 0-.06.15c0 .03.003.056.01.086.012.03.023.053.03.075.068.124.185.285.35.48.17.195.35.394.545.592.202.2.398.383.597.552.195.165.357.277.484.345.02.007.042.019.068.03.03.011.06.015.094.015a.207.207 0 0 0 .154-.064l.285-.281c.094-.094.184-.165.27-.21a.5.5 0 0 1 .267-.079.6.6 0 0 1 .23.049c.082.034.168.082.262.146l1.243.881a.57.57 0 0 1 .207.24c.037.094.06.188.06.293Z" stroke="#fff" stroke-miterlimit="10"/></svg><svg fill="none" viewBox="0 0 20 20" id="whatsapp-black" xmlns="http://www.w3.org/2000/svg"><path d="M5.75 17.167A8.35 8.35 0 0 0 10 18.333c4.583 0 8.333-3.75 8.333-8.333S14.583 1.667 10 1.667 1.667 5.417 1.667 10c0 1.5.416 2.917 1.083 4.167l-.643 2.472a1 1 0 0 0 1.243 1.214l2.4-.686Z" stroke="#000" stroke-miterlimit="10" stroke-linecap="round" stroke-linejoin="round"/><path d="M13.75 12.374c0 .135-.03.274-.094.409a1.692 1.692 0 0 1-.871.825c-.226.093-.47.142-.732.142-.384 0-.793-.09-1.225-.274a6.604 6.604 0 0 1-1.292-.742 10.79 10.79 0 0 1-1.232-1.05 10.66 10.66 0 0 1-1.047-1.226 6.683 6.683 0 0 1-.737-1.28 3.155 3.155 0 0 1-.27-1.226c0-.255.045-.498.135-.723.09-.229.233-.439.432-.627.24-.236.503-.352.781-.352.105 0 .21.022.304.067a.612.612 0 0 1 .252.21l.871 1.227c.068.094.117.18.15.262a.592.592 0 0 1 .053.229c0 .09-.026.18-.079.266-.048.087-.12.177-.21.267l-.285.296a.2.2 0 0 0-.06.15c0 .03.003.056.01.086.012.03.023.053.03.075.068.124.185.285.35.48.17.195.35.394.545.592.202.2.398.383.597.552.195.165.357.277.484.345.02.007.042.019.068.03.03.011.06.015.094.015a.207.207 0 0 0 .154-.064l.285-.281c.094-.094.184-.165.27-.21a.5.5 0 0 1 .267-.079.6.6 0 0 1 .23.049c.082.034.168.082.262.146l1.243.881a.57.57 0 0 1 .207.24c.037.094.06.188.06.293Z" stroke="#000" stroke-miterlimit="10"/></svg><svg fill="none" viewBox="0 0 20 20" id="youtube" xmlns="http://www.w3.org/2000/svg"><path d="M14.167 16.667H5.833c-2.5 0-4.166-1.667-4.166-4.167v-5c0-2.5 1.666-4.167 4.166-4.167h8.334c2.5 0 4.166 1.667 4.166 4.167v5c0 2.5-1.666 4.167-4.166 4.167Z" stroke="#fff" stroke-miterlimit="10" stroke-linecap="round" stroke-linejoin="round"/><path d="m9.5 7.917 2.083 1.25c.75.5.75 1.25 0 1.75L9.5 12.167c-.833.5-1.5.083-1.5-.834v-2.5c0-1.083.667-1.416 1.5-.916Z" stroke="#fff" stroke-miterlimit="10" stroke-linecap="round" stroke-linejoin="round"/></svg><svg fill="none" viewBox="0 0 20 20" id="youtube-black" xmlns="http://www.w3.org/2000/svg"><path d="M14.167 16.667H5.833c-2.5 0-4.166-1.667-4.166-4.167v-5c0-2.5 1.666-4.167 4.166-4.167h8.334c2.5 0 4.166 1.667 4.166 4.167v5c0 2.5-1.666 4.167-4.166 4.167Z" stroke="#000" stroke-miterlimit="10" stroke-linecap="round" stroke-linejoin="round"/><path d="m9.5 7.917 2.083 1.25c.75.5.75 1.25 0 1.75L9.5 12.167c-.833.5-1.5.083-1.5-.834v-2.5c0-1.083.667-1.416 1.5-.916Z" stroke="#000" stroke-miterlimit="10" stroke-linecap="round" stroke-linejoin="round"/></svg></svg>